<svg width="21" height="21" viewBox="0 0 21 21" fill="none" xmlns="http://www.w3.org/2000/svg">
<path d="M12.3417 10.5372C12.3417 11.6286 11.4559 12.5134 10.3632 12.5134C9.27054 12.5134 8.38477 11.6286 8.38477 10.5372C8.38477 9.44577 9.27054 8.56104 10.3632 8.56104C11.4559 8.56104 12.3417 9.44577 12.3417 10.5372Z" fill="white"/>
<path d="M14.9903 7.04081C14.8952 6.78339 14.7434 6.5504 14.5463 6.35914C14.3548 6.16222 14.1217 6.01067 13.8638 5.91567C13.6547 5.83454 13.3405 5.73797 12.7618 5.71166C12.1358 5.68315 11.9481 5.677 10.3633 5.677C8.77836 5.677 8.59067 5.68299 7.96483 5.7115C7.38614 5.73797 7.0718 5.83454 6.86282 5.91567C6.60494 6.01067 6.37167 6.16222 6.18035 6.35914C5.9832 6.5504 5.83147 6.78324 5.7362 7.04081C5.65498 7.24971 5.55829 7.56368 5.53195 8.14169C5.5034 8.7668 5.49725 8.95427 5.49725 10.5374C5.49725 12.1203 5.5034 12.3078 5.53195 12.9331C5.55829 13.5111 5.65498 13.8249 5.7362 14.0338C5.83147 14.2914 5.98304 14.5242 6.18019 14.7155C6.37167 14.9124 6.60478 15.0639 6.86266 15.1589C7.0718 15.2402 7.38614 15.3368 7.96483 15.3631C8.59067 15.3916 8.7782 15.3976 10.3632 15.3976C11.9483 15.3976 12.136 15.3916 12.7616 15.3631C13.3403 15.3368 13.6547 15.2402 13.8638 15.1589C14.3815 14.9595 14.7906 14.5508 14.9903 14.0338C15.0715 13.8249 15.1682 13.5111 15.1947 12.9331C15.2232 12.3078 15.2292 12.1203 15.2292 10.5374C15.2292 8.95427 15.2232 8.7668 15.1947 8.14169C15.1683 7.56368 15.0717 7.24971 14.9903 7.04081ZM10.3633 13.5815C8.67994 13.5815 7.31532 12.2186 7.31532 10.5372C7.31532 8.85581 8.67994 7.49295 10.3633 7.49295C12.0465 7.49295 13.4112 8.85581 13.4112 10.5372C13.4112 12.2186 12.0465 13.5815 10.3633 13.5815ZM13.5317 8.08403C13.1383 8.08403 12.8194 7.76549 12.8194 7.37259C12.8194 6.97969 13.1383 6.66114 13.5317 6.66114C13.925 6.66114 14.2439 6.97969 14.2439 7.37259C14.2438 7.76549 13.925 8.08403 13.5317 8.08403Z" fill="white"/>
<path d="M10.3633 0.21283C4.65542 0.21283 0.0267334 4.83611 0.0267334 10.5373C0.0267334 16.2384 4.65542 20.8617 10.3633 20.8617C16.0711 20.8617 20.6998 16.2384 20.6998 10.5373C20.6998 4.83611 16.0711 0.21283 10.3633 0.21283ZM16.2629 12.9815C16.2342 13.6126 16.1337 14.0434 15.987 14.4206C15.6787 15.217 15.0484 15.8465 14.2511 16.1545C13.8737 16.301 13.4422 16.4012 12.8105 16.43C12.1775 16.4588 11.9753 16.4658 10.3634 16.4658C8.75133 16.4658 8.54928 16.4588 7.91618 16.43C7.2845 16.4012 6.85298 16.301 6.47554 16.1545C6.07935 16.0056 5.72068 15.7723 5.42416 15.4706C5.12228 15.1746 4.8887 14.8162 4.73965 14.4206C4.59297 14.0436 4.4925 13.6126 4.46379 12.9816C4.43461 12.3493 4.42783 12.1473 4.42783 10.5373C4.42783 8.92723 4.43461 8.72526 4.46363 8.09306C4.49234 7.46196 4.59265 7.03109 4.73933 6.65395C4.88838 6.25837 5.12213 5.89997 5.42416 5.60395C5.72053 5.30227 6.07935 5.06895 6.47539 4.92008C6.85298 4.77357 7.28435 4.67337 7.91618 4.64454C8.54913 4.61571 8.75133 4.60878 10.3633 4.60878C11.9752 4.60878 12.1774 4.61571 12.8103 4.6447C13.4422 4.67337 13.8735 4.77357 14.2511 4.91992C14.6472 5.0688 15.006 5.30227 15.3025 5.60395C15.6044 5.90013 15.8381 6.25837 15.987 6.65395C16.1339 7.03109 16.2342 7.46196 16.263 8.09306C16.2919 8.72526 16.2987 8.92723 16.2987 10.5373C16.2987 12.1473 16.2919 12.3493 16.2629 12.9815Z" fill="white"/>
</svg>
