<svg width="22" height="22" viewBox="0 0 22 22" fill="none" xmlns="http://www.w3.org/2000/svg">
<mask id="path-1-inside-1_1_30" fill="white">
<path d="M11.4625 21.0745C17.2835 21.0745 21.9998 16.3582 21.9998 10.5373C21.9998 4.7163 17.2835 0 11.4625 0C5.64154 0 0.925232 4.7163 0.925232 10.5373C0.925232 16.3582 5.64154 21.0745 11.4625 21.0745ZM5.74691 10.309L15.9066 6.39173C16.3781 6.22138 16.79 6.50676 16.6372 7.21978L16.6381 7.21891L14.9082 15.3686C14.78 15.9464 14.4366 16.0869 13.9563 15.8147L11.322 13.8732L10.0514 15.0973C9.91089 15.2378 9.79234 15.3563 9.52013 15.3563L9.70717 12.6755L14.5894 8.26473C14.8019 8.07769 14.542 7.97232 14.2619 8.15848L8.22844 11.9572L5.62749 11.1458C5.06287 10.9667 5.05057 10.5812 5.74691 10.309Z"/>
</mask>
<path d="M11.4625 21.0745C17.2835 21.0745 21.9998 16.3582 21.9998 10.5373C21.9998 4.7163 17.2835 0 11.4625 0C5.64154 0 0.925232 4.7163 0.925232 10.5373C0.925232 16.3582 5.64154 21.0745 11.4625 21.0745ZM5.74691 10.309L15.9066 6.39173C16.3781 6.22138 16.79 6.50676 16.6372 7.21978L16.6381 7.21891L14.9082 15.3686C14.78 15.9464 14.4366 16.0869 13.9563 15.8147L11.322 13.8732L10.0514 15.0973C9.91089 15.2378 9.79234 15.3563 9.52013 15.3563L9.70717 12.6755L14.5894 8.26473C14.8019 8.07769 14.542 7.97232 14.2619 8.15848L8.22844 11.9572L5.62749 11.1458C5.06287 10.9667 5.05057 10.5812 5.74691 10.309Z" fill="white"/>
<path d="M15.9066 6.39173L10.105 -9.66721L9.9338 -9.60535L9.76392 -9.53985L15.9066 6.39173ZM16.6372 7.21978L-0.0585728 3.64212L-12.184 60.2273L28.7166 19.2877L16.6372 7.21978ZM16.6381 7.21891L33.3407 10.7642L45.3138 -45.6431L4.55861 -4.84902L16.6381 7.21891ZM14.9082 15.3686L31.5775 19.0673L31.5945 18.9907L31.6108 18.9139L14.9082 15.3686ZM13.9563 15.8147L3.82618 29.5598L4.64866 30.166L5.53756 30.6697L13.9563 15.8147ZM11.322 13.8732L21.4521 0.128087L9.85277 -8.42066L-0.524382 1.57641L11.322 13.8732ZM10.0514 15.0973L-1.795 2.80049L-1.90969 2.91098L-2.0223 3.02359L10.0514 15.0973ZM9.52013 15.3563L-7.51323 14.1679L-8.78741 32.4311H9.52013V15.3563ZM9.70717 12.6755L-1.73915 0.00543341L-6.8471 4.62004L-7.3262 11.4871L9.70717 12.6755ZM14.5894 8.26473L3.30817 -4.55248L3.22517 -4.47942L3.14311 -4.40529L14.5894 8.26473ZM14.2619 8.15848L23.3593 22.6079L23.5374 22.4957L23.7127 22.3792L14.2619 8.15848ZM8.22844 11.9572L3.14361 28.2572L10.6615 30.6024L17.3258 26.4066L8.22844 11.9572ZM5.62749 11.1458L0.46394 27.4211L0.50327 27.4336L0.542661 27.4459L5.62749 11.1458ZM5.74691 10.309L-0.395766 -5.62262L-0.432832 -5.60833L-0.469831 -5.59386L5.74691 10.309ZM11.4625 38.1493C26.7136 38.1493 39.0745 25.7884 39.0745 10.5373H4.925C4.925 6.9281 7.85333 3.99977 11.4625 3.99977V38.1493ZM39.0745 10.5373C39.0745 -4.71383 26.7136 -17.0748 11.4625 -17.0748V17.0748C7.85333 17.0748 4.925 14.1464 4.925 10.5373H39.0745ZM11.4625 -17.0748C-3.7886 -17.0748 -16.1495 -4.71383 -16.1495 10.5373H18C18 14.1464 15.0717 17.0748 11.4625 17.0748V-17.0748ZM-16.1495 10.5373C-16.1495 25.7884 -3.7886 38.1493 11.4625 38.1493V3.99977C15.0717 3.99977 18 6.9281 18 10.5373H-16.1495ZM11.8896 26.2405L22.0493 22.3233L9.76392 -9.53985L-0.395766 -5.62262L11.8896 26.2405ZM21.7081 22.4507C17.8773 23.8346 10.5329 24.496 4.58839 18.7022C-1.15018 13.1092 -0.62431 6.28223 -0.0585728 3.64212L33.3329 10.7974C34.0514 7.44432 34.4478 0.118118 28.4236 -5.75326C22.1935 -11.8254 14.4074 -11.2215 10.105 -9.66721L21.7081 22.4507ZM28.7166 19.2877L28.7175 19.2868L4.55861 -4.84902L4.55774 -4.84814L28.7166 19.2877ZM-0.0645907 3.67358L-1.79446 11.8233L31.6108 18.9139L33.3407 10.7642L-0.0645907 3.67358ZM-1.76117 11.6699C-1.35013 9.81743 0.476443 3.54633 7.52017 0.356362C14.6345 -2.86556 20.6148 -0.0379627 22.3751 0.959645L5.53756 30.6697C7.77818 31.9395 14.1703 34.833 21.6084 31.4644C28.976 28.1278 31.0383 21.4976 31.5775 19.0673L-1.76117 11.6699ZM24.0865 2.06958L21.4521 0.128087L1.19186 27.6183L3.82618 29.5598L24.0865 2.06958ZM-0.524382 1.57641L-1.795 2.80049L21.8978 27.3941L23.1684 26.17L-0.524382 1.57641ZM-2.0223 3.02359C-2.36991 3.3712 -0.907577 1.7737 1.25648 0.516209C3.99498 -1.07508 6.90065 -1.71845 9.52013 -1.71845V32.4311C12.4118 32.4311 15.5129 31.7284 18.4138 30.0427C19.6877 29.3025 20.6301 28.5403 21.2195 28.0222C21.5114 27.7658 21.7413 27.5468 21.8823 27.4102C22.0122 27.2844 22.1248 27.1712 22.1251 27.171L-2.0223 3.02359ZM26.5535 16.5447L26.7405 13.8638L-7.3262 11.4871L-7.51323 14.1679L26.5535 16.5447ZM21.1535 25.3455L26.0358 20.9347L3.14311 -4.40529L-1.73915 0.00543341L21.1535 25.3455ZM25.8707 21.0819C27.052 20.0422 31.4862 15.9106 31.7321 8.72711C32.0654 -1.01247 24.9722 -6.34453 20.3973 -7.99256C16.3194 -9.46158 12.75 -9.03903 10.7711 -8.60103C8.47794 -8.09346 6.47556 -7.16844 4.81111 -6.06229L23.7127 22.3792C22.1883 23.3923 20.3234 24.2607 18.1512 24.7415C16.2932 25.1528 12.828 25.5784 8.82347 24.1359C4.32204 22.5143 -2.72855 17.232 -2.39748 7.55898C-2.15389 0.44205 2.23316 -3.60629 3.30817 -4.55248L25.8707 21.0819ZM5.16452 -6.29092L-0.868946 -2.49224L17.3258 26.4066L23.3593 22.6079L5.16452 -6.29092ZM13.3133 -4.3429L10.7123 -5.15427L0.542661 27.4459L3.14361 28.2572L13.3133 -4.3429ZM10.791 -5.12951C12.0675 -4.72452 14.5696 -3.75562 17.0134 -1.45523C19.7004 1.07409 22.7864 5.83487 22.2239 12.2531C21.7094 18.1235 18.4246 21.7765 16.6207 23.3603C14.7245 25.0252 12.9093 25.8421 11.9637 26.2118L-0.469831 -5.59386C-1.76363 -5.08809 -3.83847 -4.12087 -5.91054 -2.30159C-7.89036 -0.563301 -11.2673 3.24825 -11.7952 9.2715C-12.3711 15.8425 -9.21969 20.7502 -6.39334 23.4107C-3.8102 25.8423 -1.09488 26.9265 0.46394 27.4211L10.791 -5.12951Z" fill="white" mask="url(#path-1-inside-1_1_30)"/>
</svg>
