<svg width="21" height="21" viewBox="0 0 21 21" fill="none" xmlns="http://www.w3.org/2000/svg">
<path d="M10.4162 0C4.66355 0 -0.000244141 4.65813 -0.000244141 10.4043C-0.000244141 16.1504 4.66355 20.8085 10.4162 20.8085C16.1688 20.8085 20.8326 16.1504 20.8326 10.4043C20.8326 4.65813 16.1688 0 10.4162 0ZM15.7 11.5295C16.1855 12.0032 16.6991 12.4489 17.1349 12.9715C17.328 13.2027 17.51 13.4418 17.6486 13.7106C17.8463 14.094 17.6677 14.5145 17.3242 14.5372L15.1902 14.5368C14.639 14.5824 14.2004 14.3603 13.8307 13.984C13.5355 13.684 13.2616 13.3637 12.9773 13.0535C12.8612 12.9262 12.7388 12.8064 12.593 12.712C12.3021 12.523 12.0494 12.5809 11.8827 12.8845C11.7128 13.1934 11.6741 13.5357 11.6579 13.8795C11.6346 14.3821 11.4829 14.5134 10.978 14.537C9.89916 14.5875 8.87552 14.424 7.92414 13.8807C7.08485 13.4015 6.43525 12.7252 5.86919 11.9595C4.76692 10.4669 3.92273 8.82857 3.16422 7.14324C2.99351 6.76368 3.1184 6.5606 3.53762 6.55272C4.23411 6.53931 4.9306 6.54101 5.62708 6.55208C5.91054 6.55655 6.09809 6.71855 6.207 6.98571C6.58337 7.91065 7.04479 8.79068 7.62299 9.60684C7.77708 9.82418 7.93437 10.0409 8.15836 10.1944C8.40558 10.3638 8.59399 10.3078 8.71056 10.0322C8.78516 9.85697 8.81734 9.66964 8.83354 9.48188C8.88895 8.83879 8.89556 8.1959 8.79965 7.55536C8.73998 7.15452 8.51428 6.89566 8.11424 6.81988C7.9105 6.78135 7.94033 6.70599 8.03944 6.58976C8.21143 6.38881 8.37255 6.26449 8.69458 6.26449L11.1057 6.26406C11.4857 6.33857 11.5709 6.50887 11.6225 6.89119L11.6246 9.56746C11.6201 9.7154 11.699 10.1539 11.965 10.2508C12.1781 10.321 12.3188 10.1503 12.4462 10.0156C13.0244 9.40269 13.4364 8.67934 13.8053 7.93066C13.9681 7.60049 14.1086 7.25883 14.245 6.91652C14.3464 6.66341 14.5041 6.53888 14.7901 6.54314L17.1119 6.54591C17.1803 6.54591 17.2498 6.54655 17.3176 6.55825C17.7089 6.6251 17.8161 6.79327 17.695 7.17453C17.5045 7.77356 17.1343 8.27254 16.7724 8.77279C16.3845 9.30839 15.9709 9.82525 15.5868 10.3632C15.2339 10.8549 15.2618 11.1025 15.7 11.5295Z" fill="white"/>
</svg>
